<svg xmlns="http://www.w3.org/2000/svg" width="933.333" height="933.333" preserveAspectRatio="xMidYMid meet" version="1.0" viewBox="0 0 700 700"><metadata>Created by potrace 1.14, written by Peter Selinger 2001-2017</metadata><g fill="#000" stroke="none"><path d="M3445 6926 c-56 -25 -70 -50 -74 -136 -3 -78 -4 -79 -32 -85 -16 -4 -40 -20 -54 -37 -21 -25 -25 -39 -25 -97 0 -53 4 -74 20 -94 l20 -26 -57 -6 c-415 -45 -687 -122 -1038 -295 -191 -94 -388 -218 -544 -344 -96 -77 -110 -81 -111 -29 0 31 -45 80 -85 93 -39 13 -91 5 -117 -17 -14 -13 -18 -11 -34 15 -36 62 -131 90 -194 57 -36 -19 -70 -82 -70 -131 0 -48 27 -103 60 -122 26 -15 26 -15 11 -58 -14 -40 -14 -46 5 -91 22 -54 71 -93 115 -93 16 0 29 -4 29 -8 0 -5 -20 -32 -45 -61 -297 -348 -533 -838 -630 -1306 -18 -90 -55 -344 -55 -383 0 -2 -10 9 -22 23 -63 72 -202 41 -227 -51 -7 -29 -8 -29 -73 -26 -61 3 -68 2 -99 -26 -28 -25 -33 -36 -37 -89 -5 -74 15 -119 63 -139 40 -16 89 -18 115 -4 16 9 22 4 39 -35 27 -61 71 -87 134 -82 28 2 60 13 77 26 l29 21 5 -33 c3 -17 8 -61 11 -97 32 -351 164 -773 345 -1100 66 -121 201 -323 279 -420 33 -41 61 -78 61 -82 0 -5 -10 -8 -21 -8 -34 0 -85 -37 -103 -74 -18 -39 -21 -83 -6 -120 8 -22 6 -28 -16 -42 -54 -36 -74 -118 -44 -178 28 -57 63 -79 132 -84 58 -4 59 -4 98 37 39 41 40 41 69 26 55 -28 135 -14 171 30 7 9 18 36 24 59 l11 44 104 -84 c434 -354 1005 -586 1544 -630 48 -4 87 -9 87 -11 0 -2 -7 -11 -15 -19 -10 -11 -15 -36 -15 -77 0 -76 23 -120 73 -138 l35 -12 4 -73 c4 -84 25 -116 89 -135 108 -33 213 65 181 168 -10 32 -9 33 32 52 29 12 47 28 55 50 18 42 10 135 -14 161 -10 11 -16 22 -14 23 2 2 56 9 119 16 540 57 1121 303 1541 653 33 27 62 48 63 46 1 -1 8 -22 14 -45 23 -80 112 -118 182 -78 35 20 48 18 55 -6 16 -51 123 -76 184 -44 49 25 81 72 81 117 0 48 -24 102 -57 128 -23 18 -24 22 -13 55 18 55 5 98 -40 139 -22 20 -46 36 -53 36 -6 0 -18 4 -26 9 -12 8 -8 17 20 48 124 137 275 367 382 583 154 307 251 627 287 945 6 55 14 115 16 133 l5 33 29 -25 c33 -27 94 -41 140 -31 33 7 77 53 86 92 6 23 10 24 53 19 65 -8 112 11 133 54 34 68 16 184 -33 210 -14 8 -46 11 -84 7 l-62 -4 -17 38 c-34 78 -136 92 -200 30 l-33 -32 -7 88 c-46 585 -276 1171 -635 1616 -39 48 -71 90 -71 92 0 3 8 5 18 5 28 0 81 37 102 72 21 35 26 98 10 128 -8 14 -5 21 15 34 28 19 45 47 56 96 32 140 -145 228 -249 124 l-35 -35 -35 17 c-67 31 -140 1 -178 -73 l-21 -41 -116 86 c-456 342 -966 532 -1580 587 l-68 7 31 34 c26 30 30 43 30 90 0 67 -21 103 -78 128 l-38 17 4 58 c5 74 -16 123 -63 145 -40 19 -80 20 -120 2z m124 -82 c25 -31 26 -55 6 -93 -21 -42 -65 -57 -104 -37 -28 15 -61 61 -61 85 0 5 12 23 26 40 21 26 33 31 69 31 35 0 48 -5 64 -26z m90 -198 c67 -61 33 -146 -59 -146 -44 0 -58 9 -70 46 -15 45 2 99 38 119 31 16 58 11 91 -19z m-196 -19 c21 -24 17 -65 -8 -104 -11 -17 -25 -23 -51 -23 -64 0 -103 65 -73 121 22 43 98 46 132 6z m327 -268 c631 -61 1253 -362 1725 -834 434 -434 733 -1009 824 -1586 50 -312 42 -697 -19 -1003 -133 -657 -495 -1255 -1012 -1670 -447 -360 -975 -573 -1552 -627 -175 -16 -510 -6 -684 20 -597 91 -1129 351 -1557 763 -152 146 -262 278 -384 460 -489 728 -617 1642 -346 2463 148 447 395 846 735 1185 622 622 1415 911 2270 829z m2090 -484 c34 -37 33 -90 -4 -121 -33 -29 -61 -30 -102 -5 -39 24 -50 61 -29 101 29 56 94 68 135 25z m-4622 -40 c30 -35 28 -61 -7 -96 -50 -49 -127 -34 -149 29 -28 82 96 136 156 67z m4392 -35 c24 -24 25 -39 6 -85 -17 -40 -46 -58 -82 -49 -51 13 -83 104 -48 138 23 24 99 21 124 -4z m-4177 -5 c23 -23 30 -71 15 -102 -12 -25 -20 -28 -64 -31 -46 -3 -54 0 -73 24 -28 35 -27 69 4 99 28 29 94 34 118 10z m4341 -140 c45 -42 34 -119 -21 -144 -44 -20 -79 -13 -108 21 -34 40 -28 81 15 121 38 34 78 35 114 2z m-4515 -21 c60 -50 29 -144 -47 -144 -39 0 -92 46 -92 80 0 28 61 90 88 90 11 0 34 -12 51 -26z m-836 -1978 c30 -28 44 -72 30 -95 -5 -9 -26 -24 -46 -34 -31 -16 -40 -17 -64 -5 -49 24 -56 95 -13 138 27 27 62 25 93 -4z m6160 -7 c31 -17 37 -28 37 -73 0 -48 -23 -76 -62 -76 -31 0 -68 16 -80 34 -17 25 -7 68 21 97 32 31 50 35 84 18z m-6358 -104 c36 -35 37 -76 2 -112 -26 -29 -79 -31 -107 -3 -45 45 -8 140 55 140 14 0 37 -11 50 -25z m6585 -10 c67 -71 -15 -180 -101 -135 -31 17 -52 66 -38 93 36 70 96 88 139 42z m-6379 -85 c30 -16 27 -113 -3 -134 -31 -22 -70 -20 -102 5 -35 28 -38 100 -4 123 26 18 80 21 109 6z m6188 -26 c30 -38 27 -80 -8 -115 -33 -33 -47 -35 -96 -15 -93 39 -64 156 39 156 36 0 48 -5 65 -26z m-5384 -1920 c8 -4 22 -19 30 -35 52 -99 -49 -184 -134 -113 -47 39 -36 94 25 135 30 20 51 23 79 13z m4524 -40 c26 -33 27 -85 2 -108 -54 -49 -141 -18 -141 50 0 76 95 115 139 58z m-4348 -137 c70 -54 36 -167 -51 -167 -23 0 -70 55 -70 81 0 27 26 76 47 88 24 14 55 13 74 -2z m4154 -13 c24 -9 48 -62 40 -91 -3 -15 -18 -30 -41 -39 -76 -32 -140 29 -103 97 16 31 67 47 104 33z m-4371 -66 c41 -37 43 -72 8 -108 -70 -69 -183 -4 -139 80 26 50 90 64 131 28z m4629 -9 c17 -22 23 -75 9 -95 -11 -18 -49 -34 -77 -34 -33 0 -85 50 -85 82 1 69 107 102 153 47z m-2406 -771 c11 -12 18 -35 18 -60 0 -49 -22 -68 -78 -68 -50 0 -102 47 -92 82 11 34 35 57 69 66 39 11 60 5 83 -20z m215 5 c41 -36 25 -103 -32 -137 -37 -21 -52 -20 -83 4 -71 56 -20 172 68 154 17 -3 37 -13 47 -21z m-107 -218 c14 -13 25 -36 25 -50 0 -32 -50 -85 -80 -85 -47 0 -100 51 -100 95 0 7 14 25 31 39 40 34 91 35 124 1z" transform="translate(0.000000,700.000000) scale(0.100000,-0.100000)"/><path d="M3200 5974 c-446 -61 -888 -254 -1240 -543 -296 -243 -525 -532 -695 -876 -177 -358 -256 -687 -257 -1070 0 -221 20 -385 72 -592 112 -439 339 -834 669 -1163 331 -330 731 -559 1166 -670 232 -59 356 -74 600 -74 239 0 369 15 580 69 424 108 810 326 1134 640 316 307 526 637 662 1045 132 397 156 821 68 1230 -70 322 -247 704 -455 979 -434 573 -1045 938 -1717 1026 -147 19 -443 18 -587 -1z m260 -369 c0 -272 0 -274 -22 -286 -12 -6 -44 -32 -71 -58 l-50 -46 6 34 c28 144 31 365 6 540 -13 88 -10 91 74 91 l57 0 0 -275z m199 266 c11 -7 12 -20 2 -72 -27 -147 -25 -351 6 -532 l6 -39 -67 53 -66 53 0 273 0 273 53 0 c28 0 58 -4 66 -9z m-397 -36 c21 -78 30 -247 20 -348 -20 -182 -41 -268 -74 -304 -38 -40 -48 -104 -23 -156 9 -19 40 -63 70 -97 82 -94 85 -105 85 -274 0 -134 -1 -146 -18 -146 -70 0 -327 -100 -411 -159 l-28 -20 -55 62 c-126 143 -159 204 -169 319 -5 48 -16 102 -24 119 -20 37 -68 59 -133 59 -41 0 -59 7 -127 53 -104 68 -259 218 -324 311 -28 41 -51 77 -51 80 0 3 45 39 99 80 316 235 633 372 1011 437 133 22 142 21 152 -16z m713 -2 c246 -47 517 -153 735 -288 137 -85 292 -204 283 -218 -19 -33 -103 -137 -156 -194 -112 -119 -268 -226 -345 -236 -86 -11 -117 -51 -131 -174 -12 -115 -36 -159 -145 -270 l-94 -98 -114 57 c-130 64 -189 85 -273 96 l-60 7 -3 132 c-3 151 -2 155 82 268 29 39 58 80 64 92 27 50 7 139 -41 180 -44 37 -77 190 -77 359 0 99 20 245 40 299 12 31 13 31 235 -12z m-1985 -600 c65 -103 272 -292 388 -352 39 -20 10 -39 -66 -43 -37 -2 -74 -7 -83 -11 -12 -6 -62 40 -200 184 l-184 192 50 43 c28 24 52 43 55 43 3 0 21 -25 40 -56z m3115 7 c29 -29 45 -53 40 -58 -6 -4 -84 -80 -175 -169 l-165 -160 -87 -7 c-69 -5 -88 -3 -88 7 0 7 34 37 76 67 90 64 231 210 294 303 25 37 47 67 50 67 3 0 28 -22 55 -50z m-1547 -7 l53 -36 -25 -16 c-14 -8 -39 -40 -55 -70 l-29 -54 -21 40 c-11 23 -36 54 -56 70 l-35 29 22 21 c32 28 71 53 83 53 5 0 34 -17 63 -37z m-1572 -265 l181 -183 -5 -92 c-3 -68 -8 -93 -17 -93 -8 0 -35 33 -61 73 -62 93 -228 259 -322 321 l-74 49 53 53 c29 30 56 54 59 54 3 0 87 -82 186 -182z m1394 155 c16 -16 45 -55 65 -87 l35 -60 0 -224 0 -223 -37 3 -38 3 -5 145 c-5 136 -8 149 -37 210 -17 36 -51 89 -77 118 -49 57 -57 89 -28 114 40 36 83 36 122 1z m372 10 c36 -32 24 -74 -51 -168 -38 -48 -72 -99 -75 -114 -4 -14 -9 -92 -13 -173 l-6 -148 -33 0 -34 0 0 230 0 231 30 58 c16 33 41 68 56 80 33 26 99 28 126 4z m1548 -103 c-8 -4 -55 -37 -103 -71 -101 -72 -209 -182 -275 -282 -25 -37 -49 -64 -53 -60 -4 4 -9 42 -12 83 l-4 75 181 182 181 183 50 -50 c40 -41 47 -53 35 -60z m-3572 -102 c170 -117 382 -366 382 -449 0 -73 68 -124 192 -144 46 -7 96 -18 112 -25 44 -16 144 -91 200 -148 l49 -51 -31 -48 c-50 -79 -120 -232 -144 -320 -20 -75 -24 -82 -51 -87 -52 -10 -211 -6 -247 7 -19 7 -72 43 -117 79 -44 36 -92 69 -105 74 -53 17 -148 -3 -171 -36 -24 -35 -236 -80 -378 -80 -66 0 -220 20 -270 35 -17 6 -17 11 7 170 35 229 107 453 215 666 80 158 249 409 276 409 2 0 39 -24 81 -52z m3697 -23 c154 -191 300 -458 374 -682 40 -118 83 -310 96 -425 l6 -57 -38 -9 c-21 -6 -63 -16 -93 -24 -32 -7 -109 -13 -185 -13 -109 1 -148 5 -240 29 -87 22 -117 34 -142 59 -26 24 -43 31 -87 35 -54 4 -55 4 -156 -68 -55 -39 -116 -76 -133 -81 -18 -6 -85 -13 -149 -16 -96 -5 -118 -3 -122 8 -2 8 -12 48 -21 88 -23 99 -58 180 -117 271 -44 67 -48 77 -36 98 20 37 161 178 197 197 19 10 76 21 134 26 104 10 161 29 177 59 5 10 13 43 18 73 14 87 88 202 207 323 95 97 216 187 242 182 7 -2 37 -34 68 -73z m-2860 -100 c22 -21 25 -33 25 -103 0 -115 28 -167 195 -357 l49 -57 -24 -20 -25 -20 -158 164 c-88 91 -166 181 -177 203 -23 49 -35 115 -26 149 16 65 95 88 141 41z m1976 15 c10 -6 26 -24 34 -41 14 -26 14 -39 5 -86 -14 -65 -45 -143 -58 -143 -5 0 -75 -63 -157 -140 -82 -77 -152 -140 -155 -140 -4 0 -15 9 -25 20 -17 19 -15 22 81 123 128 134 154 184 154 293 0 65 4 84 18 96 32 28 70 35 103 18z m-2186 -87 c4 -27 13 -63 21 -82 8 -19 12 -36 10 -38 -2 -2 -28 3 -57 11 -29 9 -66 16 -82 16 l-29 0 7 53 c8 61 17 74 53 80 69 10 69 10 77 -40z m2430 37 c4 -6 9 -35 12 -65 l6 -55 -29 0 c-16 -1 -54 -9 -84 -20 -72 -25 -71 -26 -54 15 8 19 19 57 25 85 l11 50 53 0 c30 0 57 -5 60 -10z m26 -213 c43 -29 50 -69 18 -103 -27 -28 -63 -40 -149 -49 -94 -9 -152 -42 -266 -149 l-99 -93 -18 24 c-19 24 -18 24 24 71 77 85 244 254 269 272 31 22 114 48 156 49 17 1 46 -9 65 -22z m-2437 -9 c33 -9 74 -45 204 -172 89 -88 162 -164 162 -170 0 -5 -7 -18 -16 -28 -16 -17 -20 -15 -78 40 -148 137 -218 177 -336 192 -98 12 -133 31 -138 78 -5 50 25 72 99 72 34 0 80 -5 103 -12z m1301 -119 c232 -39 461 -179 605 -370 128 -171 191 -356 192 -569 1 -158 -23 -266 -91 -405 -185 -378 -580 -602 -979 -556 -404 47 -719 319 -828 716 -27 100 -27 369 0 470 48 176 133 324 255 446 226 226 527 322 846 268z m-1660 -730 c39 -34 85 -68 103 -75 35 -15 188 -33 285 -34 l57 0 0 -35 0 -35 -225 0 c-204 0 -229 2 -264 20 -111 56 -162 149 -111 200 37 37 77 27 155 -41z m3147 44 c32 -28 23 -76 -24 -134 -72 -87 -78 -89 -335 -89 l-223 0 0 34 0 33 113 7 c184 12 228 27 320 112 48 45 64 54 94 54 20 0 45 -7 55 -17z m168 -93 c110 -26 370 -23 543 6 l38 7 -3 -69 -3 -69 -266 -3 -267 -2 -49 57 c-80 95 -81 97 -58 90 11 -4 40 -11 65 -17z m-4089 -10 c142 -16 419 -7 493 16 18 6 17 3 -5 -22 -13 -17 -33 -49 -43 -72 l-19 -42 -276 2 -276 3 -3 54 c-4 67 2 84 27 76 10 -3 56 -10 102 -15z m4035 -105 l35 -55 -27 -35 c-42 -56 -53 -58 -98 -19 -22 19 -51 37 -63 40 -30 8 -29 16 5 36 15 9 43 33 61 52 19 20 39 36 43 36 5 0 24 -25 44 -55z m-3409 4 l64 -42 -49 -28 c-28 -15 -59 -40 -69 -55 l-20 -27 -41 52 c-40 51 -41 53 -27 81 15 29 51 60 69 60 5 0 38 -19 73 -41z m-191 -131 c14 -24 42 -57 61 -74 l35 -31 -83 15 c-117 20 -341 20 -457 -1 -132 -24 -122 -29 -122 58 l0 75 270 0 270 0 26 -42z m784 23 c0 -22 -35 -31 -115 -31 -63 0 -188 -23 -236 -43 -19 -8 -63 -39 -99 -71 -49 -42 -72 -56 -96 -56 -70 0 -91 86 -37 151 58 68 61 69 336 69 235 0 247 -1 247 -19z m2625 -12 c30 -17 64 -42 75 -56 38 -49 17 -133 -33 -133 -12 0 -53 25 -92 55 -111 85 -139 94 -309 101 l-146 7 0 29 0 28 225 0 225 0 55 -31z m825 -39 l0 -60 -47 8 c-66 10 -507 9 -568 -1 l-49 -9 52 41 c28 22 56 50 62 61 10 19 21 20 280 20 l270 0 0 -60z m-3422 -150 c17 -72 41 -135 87 -227 74 -147 76 -129 -27 -236 -76 -78 -131 -106 -208 -107 -107 -2 -151 -14 -187 -54 -27 -29 -33 -44 -33 -80 0 -37 -9 -58 -52 -122 -66 -99 -228 -267 -333 -346 -44 -34 -79 -67 -79 -75 3 -23 -16 -3 -91 97 -175 235 -295 484 -365 757 -38 147 -74 385 -59 394 21 13 172 41 258 48 169 14 362 -20 411 -72 23 -25 38 -31 84 -35 49 -4 61 -1 104 27 26 17 59 42 73 57 50 54 117 70 299 73 l95 1 23 -100z m2359 69 c48 -9 74 -20 110 -49 105 -83 188 -104 240 -62 98 78 349 108 598 70 104 -16 103 -14 93 -100 -44 -386 -221 -800 -478 -1124 l-52 -64 -45 32 c-195 141 -380 372 -398 501 -4 26 -17 59 -28 73 -27 34 -92 63 -142 64 -125 1 -220 43 -333 146 l-53 49 55 84 c64 96 111 210 135 325 l16 79 110 -7 c61 -4 138 -12 172 -17z m-2285 -702 l-170 -170 -74 -5 c-69 -4 -76 -3 -106 23 -26 22 -32 34 -32 66 0 53 27 68 150 84 123 17 170 40 287 148 l87 79 14 -28 c14 -27 14 -27 -156 -197z m1962 19 c48 -24 80 -32 171 -40 132 -13 155 -26 155 -87 0 -29 -6 -42 -27 -59 -25 -19 -36 -22 -93 -16 -117 10 -123 14 -289 179 -141 142 -152 156 -141 176 11 21 14 19 89 -51 42 -40 104 -86 135 -102z m-1724 84 l25 -19 -46 -48 c-67 -70 -136 -157 -161 -206 -17 -34 -22 -60 -22 -130 -1 -81 -3 -90 -25 -108 -16 -13 -36 -19 -59 -17 -49 4 -77 44 -76 107 3 84 32 129 186 289 79 82 145 150 148 151 3 0 16 -8 30 -19z m1786 -357 c20 -53 15 -144 -10 -172 -59 -65 -156 8 -156 118 0 116 -47 223 -144 328 -59 64 -65 73 -49 82 15 8 43 -15 181 -152 119 -119 167 -173 178 -204z m-361 216 c98 -103 130 -169 144 -297 6 -56 18 -107 28 -125 23 -40 75 -67 129 -67 67 0 211 -96 328 -220 72 -77 168 -200 164 -211 -5 -14 -132 -111 -228 -174 -290 -193 -617 -309 -991 -351 l-56 -6 -14 83 c-17 106 -17 357 0 472 12 79 16 89 41 102 35 18 60 71 60 127 0 41 -6 52 -63 119 -103 122 -97 104 -97 275 l0 152 43 7 c114 19 286 93 377 161 25 18 48 34 51 34 4 0 41 -36 84 -81z m-1292 42 c88 -60 176 -96 385 -157 18 -5 17 -296 -2 -332 -8 -15 -38 -49 -66 -77 -64 -62 -80 -92 -80 -150 0 -57 20 -106 52 -127 18 -12 28 -34 41 -84 33 -140 40 -207 34 -328 -6 -107 -25 -238 -38 -251 -10 -9 -229 28 -356 60 -291 75 -564 208 -822 400 l-90 68 14 27 c31 60 138 191 215 264 104 97 251 196 292 196 42 0 95 27 119 62 13 18 24 56 30 103 11 83 28 130 72 195 36 53 136 160 149 160 5 0 28 -13 51 -29z m527 -407 l0 -226 -32 -60 c-36 -68 -66 -92 -114 -92 -46 0 -74 28 -74 75 0 33 9 48 63 109 35 38 69 87 76 107 8 21 16 100 18 176 l5 137 29 0 29 0 0 -226z m150 139 c0 -107 15 -213 35 -256 8 -18 40 -63 70 -101 32 -40 55 -78 55 -92 0 -32 -34 -64 -67 -64 -42 0 -110 46 -138 94 -25 42 -25 45 -25 274 l0 232 35 0 35 0 0 -87z m-1444 -61 l-5 -52 -192 -200 c-106 -110 -194 -200 -195 -200 -5 0 -84 103 -84 110 0 3 31 28 69 53 92 63 245 223 317 331 l59 88 18 -38 c13 -28 16 -54 13 -92z m220 61 c-18 -133 -13 -123 -59 -123 -69 0 -86 9 -97 49 -5 20 -10 51 -10 69 0 32 0 32 53 33 28 1 63 5 77 9 41 13 43 12 36 -37z m2573 -82 c69 -100 205 -235 294 -294 31 -21 57 -41 57 -45 0 -5 -19 -27 -43 -50 l-42 -42 -188 188 -187 187 10 35 c6 19 10 60 10 90 1 46 3 52 13 38 7 -9 41 -57 76 -107z m-206 89 l50 0 -6 -57 c-7 -70 -24 -85 -87 -81 l-45 3 -7 50 c-4 27 -10 61 -13 74 -6 22 -4 23 26 17 17 -3 54 -6 82 -6z m-2424 -189 l63 -6 -88 -66 c-112 -84 -232 -209 -308 -321 -65 -97 -65 -97 -125 -34 l-35 36 65 67 c35 38 122 130 193 206 108 114 133 136 150 130 12 -3 50 -9 85 -12z m2658 -183 c101 -101 183 -188 183 -193 0 -6 -19 -30 -43 -53 l-43 -42 -47 69 c-65 95 -197 218 -317 297 -55 36 -98 70 -95 75 4 5 25 9 48 10 34 0 78 6 127 18 3 0 87 -81 187 -181z m-1400 -183 c27 -14 16 -35 -39 -75 -37 -27 -42 -28 -67 -16 -14 8 -37 26 -50 40 l-25 26 26 28 c13 15 35 44 47 64 l23 38 31 -47 c18 -26 42 -52 54 -58z m82 -130 c-37 -150 -35 -331 7 -532 l7 -33 -72 0 -71 0 0 264 0 264 48 35 c26 19 58 47 71 61 14 14 26 25 27 23 1 -1 -6 -38 -17 -82z m-209 -296 l0 -269 -70 0 c-38 0 -70 1 -70 3 0 1 7 36 15 77 25 126 30 311 11 418 -9 50 -16 96 -16 101 0 5 29 -7 65 -26 l65 -34 0 -270z" transform="translate(0.000000,700.000000) scale(0.100000,-0.100000)"/><path d="M3415 4201 c-244 -39 -445 -185 -547 -396 -98 -206 -89 -463 24 -665 46 -81 188 -218 273 -262 127 -66 202 -83 355 -82 154 0 232 20 357 89 85 48 205 167 256 255 237 408 14 941 -437 1045 -79 19 -216 26 -281 16z m259 -81 c103 -26 207 -82 282 -153 54 -50 124 -141 124 -160 0 -4 -21 6 -47 22 -77 47 -151 64 -262 59 -120 -5 -184 -31 -242 -96 -50 -57 -72 -130 -67 -220 l3 -66 -45 -25 c-91 -51 -191 -28 -283 64 -104 104 -129 223 -71 345 41 87 119 171 185 200 122 52 290 64 423 30z m-701 -323 c-11 -119 41 -241 144 -337 101 -95 200 -112 310 -56 27 13 57 33 67 45 26 29 56 26 103 -8 80 -58 113 -134 94 -220 -25 -117 -104 -222 -206 -272 -62 -30 -68 -31 -157 -26 -51 3 -109 10 -129 16 -47 14 -159 117 -210 193 -147 216 -166 428 -59 646 23 45 43 82 45 82 2 0 2 -28 -2 -63z m994 3 c86 -38 137 -102 172 -214 25 -80 26 -126 6 -221 -47 -223 -233 -424 -455 -489 -30 -9 -95 -19 -145 -22 l-90 -5 68 37 c75 41 138 104 179 181 31 57 58 151 58 203 0 97 -77 208 -175 254 -60 29 -70 47 -60 109 15 95 86 166 186 187 69 14 202 4 256 -20z" transform="translate(0.000000,700.000000) scale(0.100000,-0.100000)"/></g></svg>